# xmcd
#
# Track frame offsets: 
#        150
#        18024
#        39663
#        64574
#        86950
#        104379
#        120240
#        141731
#        161215
#        183704
#        200534
#
# Disc length: 2857 seconds
#
# Revision: 0
# Processed by: cddbd v1.5.2PL0 Copyright (c) Steve Scherf et al.
# Submitted via: ExactAudioCopyFreeDBPlugin 1.0
#
DISCID=9c0b270b
DTITLE=Richard Marx - Beautiful Goodbye
DYEAR=2014
DGENRE=
TTITLE0=01 Whatever we started
TTITLE1=02 Suddenly
TTITLE2=03 Inside
TTITLE3=04 Beautiful Goodbye
TTITLE4=05 Forget to remember
TTITLE5=06 Turn off the night
TTITLE6=07 Have a little faith
TTITLE7=08 Like the world is ending
TTITLE8=09 To my senses
TTITLE9=10 Getawax
TTITLE10=11 Eyes on me
EXTD=
EXTT0=
EXTT1=
EXTT2=
EXTT3=
EXTT4=
EXTT5=
EXTT6=
EXTT7=
EXTT8=
EXTT9=
EXTT10=
PLAYORDER=
